<svg width="18" height="22" viewBox="0 0 18 22" fill="none" xmlns="http://www.w3.org/2000/svg">
<path d="M4.75 6.75H8.75M4.75 10.75H12.75M4.75 14.75H12.75M4.75 20.75H12.75C14.6356 20.75 15.5784 20.75 16.1642 20.1642C16.75 19.5784 16.75 18.6356 16.75 16.75V4.75C16.75 2.86438 16.75 1.92157 16.1642 1.33579C15.5784 0.75 14.6356 0.75 12.75 0.75H4.75C2.86438 0.75 1.92157 0.75 1.33579 1.33579C0.75 1.92157 0.75 2.86438 0.75 4.75V16.75C0.75 18.6356 0.75 19.5784 1.33579 20.1642C1.92157 20.75 2.86438 20.75 4.75 20.75Z" stroke="white" stroke-width="1.5" stroke-linecap="round" stroke-linejoin="round"/>
</svg>
