<svg width="22" height="12" viewBox="0 0 22 12" fill="none" xmlns="http://www.w3.org/2000/svg">
<path d="M7.41294 9.86114L6.78934 9.44446L7.41294 9.86114ZM6.86114 10.4129L6.44446 9.78934L6.86114 10.4129ZM6.86114 1.08706L6.44446 1.71066L6.86114 1.08706ZM7.41294 1.63886L6.78934 2.05554L7.41294 1.63886ZM1.08706 1.63886L1.71066 2.05554L1.08706 1.63886ZM1.63886 1.08706L2.05554 1.71066L1.63886 1.08706ZM1.08706 9.86114L1.71066 9.44446L1.08706 9.86114ZM1.63886 10.4129L2.05554 9.78934L1.63886 10.4129ZM20.4129 9.86114L19.7893 9.44446L20.4129 9.86114ZM19.8611 10.4129L19.4445 9.78934L19.8611 10.4129ZM19.8611 1.08706L19.4445 1.71066L19.8611 1.08706ZM20.4129 1.63886L19.7893 2.05554L20.4129 1.63886ZM14.0871 1.63886L14.7107 2.05554L14.0871 1.63886ZM14.6389 1.08706L15.0555 1.71066L14.6389 1.08706ZM14.0871 9.86114L14.7107 9.44446L14.0871 9.86114ZM14.6389 10.4129L15.0555 9.78934L14.6389 10.4129ZM1.5 7.25V4.25H0V7.25H1.5ZM7 4.25V7.25H8.5V4.25H7ZM7 7.25C7 7.96784 6.99909 8.44977 6.96172 8.81717C6.92562 9.17204 6.8618 9.33601 6.78934 9.44446L8.03654 10.2778C8.30114 9.88182 8.40585 9.44245 8.45402 8.96898C8.50091 8.50804 8.5 7.93662 8.5 7.25H7ZM4.25 11.5C4.93662 11.5 5.50804 11.5009 5.96898 11.454C6.44245 11.4059 6.88182 11.3011 7.27782 11.0365L6.44446 9.78934C6.33601 9.8618 6.17204 9.92562 5.81717 9.96172C5.44977 9.99909 4.96784 10 4.25 10V11.5ZM6.78934 9.44446C6.69814 9.58095 6.58095 9.69814 6.44446 9.78934L7.27782 11.0365C7.57809 10.8359 7.83591 10.5781 8.03654 10.2778L6.78934 9.44446ZM4.25 1.5C4.96784 1.5 5.44977 1.50091 5.81717 1.53828C6.17204 1.57438 6.33601 1.6382 6.44446 1.71066L7.27782 0.463459C6.88182 0.198862 6.44245 0.0941486 5.96898 0.0459834C5.50804 -0.000906646 4.93662 0 4.25 0V1.5ZM8.5 4.25C8.5 3.56338 8.50091 2.99196 8.45402 2.53102C8.40585 2.05755 8.30114 1.61818 8.03654 1.22218L6.78934 2.05554C6.8618 2.16399 6.92562 2.32796 6.96172 2.68283C6.99909 3.05023 7 3.53216 7 4.25H8.5ZM6.44446 1.71066C6.58095 1.80186 6.69814 1.91905 6.78934 2.05554L8.03654 1.22218C7.83591 0.921909 7.57809 0.664094 7.27782 0.463459L6.44446 1.71066ZM1.5 4.25C1.5 3.53216 1.50091 3.05023 1.53828 2.68283C1.57438 2.32796 1.6382 2.16399 1.71066 2.05554L0.463459 1.22218C0.198862 1.61818 0.0941486 2.05755 0.0459834 2.53102C-0.000906646 2.99196 0 3.56338 0 4.25H1.5ZM4.25 0C3.56338 0 2.99196 -0.000906646 2.53102 0.0459834C2.05755 0.0941486 1.61818 0.198862 1.22218 0.463459L2.05554 1.71066C2.16399 1.6382 2.32796 1.57438 2.68283 1.53828C3.05023 1.50091 3.53216 1.5 4.25 1.5V0ZM1.71066 2.05554C1.80186 1.91905 1.91905 1.80186 2.05554 1.71066L1.22218 0.463459C0.921909 0.664095 0.664095 0.921909 0.463459 1.22218L1.71066 2.05554ZM0 7.25C0 7.93662 -0.000906646 8.50804 0.0459834 8.96898C0.0941486 9.44245 0.198862 9.88182 0.463459 10.2778L1.71066 9.44446C1.6382 9.33601 1.57438 9.17204 1.53828 8.81717C1.50091 8.44977 1.5 7.96784 1.5 7.25H0ZM4.25 10C3.53216 10 3.05023 9.99909 2.68283 9.96172C2.32796 9.92562 2.16399 9.8618 2.05554 9.78934L1.22218 11.0365C1.61818 11.3011 2.05755 11.4059 2.53102 11.454C2.99196 11.5009 3.56338 11.5 4.25 11.5V10ZM0.463459 10.2778C0.664094 10.5781 0.921909 10.8359 1.22218 11.0365L2.05554 9.78934C1.91905 9.69814 1.80186 9.58095 1.71066 9.44446L0.463459 10.2778ZM14.5 7.25V4.25H13V7.25H14.5ZM20 4.25V7.25H21.5V4.25H20ZM20 7.25C20 7.96784 19.9991 8.44977 19.9617 8.81717C19.9256 9.17204 19.8618 9.33601 19.7893 9.44446L21.0365 10.2778C21.3011 9.88182 21.4059 9.44245 21.454 8.96898C21.5009 8.50804 21.5 7.93662 21.5 7.25H20ZM17.25 11.5C17.9366 11.5 18.508 11.5009 18.969 11.454C19.4425 11.4059 19.8818 11.3011 20.2778 11.0365L19.4445 9.78934C19.336 9.8618 19.172 9.92562 18.8172 9.96172C18.4498 9.99909 17.9678 10 17.25 10V11.5ZM19.7893 9.44446C19.6981 9.58095 19.5809 9.69814 19.4445 9.78934L20.2778 11.0365C20.5781 10.8359 20.8359 10.5781 21.0365 10.2778L19.7893 9.44446ZM17.25 1.5C17.9678 1.5 18.4498 1.50091 18.8172 1.53828C19.172 1.57438 19.336 1.6382 19.4445 1.71066L20.2778 0.463459C19.8818 0.198862 19.4425 0.0941486 18.969 0.0459834C18.508 -0.000906646 17.9366 0 17.25 0V1.5ZM21.5 4.25C21.5 3.56338 21.5009 2.99196 21.454 2.53102C21.4059 2.05755 21.3011 1.61818 21.0365 1.22218L19.7893 2.05554C19.8618 2.16399 19.9256 2.32796 19.9617 2.68283C19.9991 3.05023 20 3.53216 20 4.25H21.5ZM19.4445 1.71066C19.5809 1.80186 19.6981 1.91905 19.7893 2.05554L21.0365 1.22218C20.8359 0.92191 20.5781 0.664095 20.2778 0.463459L19.4445 1.71066ZM14.5 4.25C14.5 3.53216 14.5009 3.05023 14.5383 2.68283C14.5744 2.32796 14.6382 2.16399 14.7107 2.05554L13.4635 1.22218C13.1989 1.61818 13.0941 2.05755 13.046 2.53102C12.9991 2.99196 13 3.56338 13 4.25H14.5ZM17.25 0C16.5634 0 15.992 -0.000906646 15.531 0.0459834C15.0575 0.0941486 14.6182 0.198862 14.2222 0.463459L15.0555 1.71066C15.164 1.6382 15.328 1.57438 15.6828 1.53828C16.0502 1.50091 16.5322 1.5 17.25 1.5V0ZM14.7107 2.05554C14.8019 1.91905 14.919 1.80186 15.0555 1.71066L14.2222 0.463459C13.9219 0.664094 13.6641 0.921909 13.4635 1.22218L14.7107 2.05554ZM13 7.25C13 7.93662 12.9991 8.50804 13.046 8.96898C13.0941 9.44245 13.1989 9.88182 13.4635 10.2778L14.7107 9.44446C14.6382 9.33601 14.5744 9.17204 14.5383 8.81717C14.5009 8.44977 14.5 7.96784 14.5 7.25H13ZM17.25 10C16.5322 10 16.0502 9.99909 15.6828 9.96172C15.328 9.92562 15.164 9.8618 15.0555 9.78934L14.2222 11.0365C14.6182 11.3011 15.0575 11.4059 15.531 11.454C15.992 11.5009 16.5634 11.5 17.25 11.5V10ZM13.4635 10.2778C13.6641 10.5781 13.9219 10.8359 14.2222 11.0365L15.0555 9.78934C14.9191 9.69814 14.8019 9.58095 14.7107 9.44446L13.4635 10.2778ZM7.75 6.5H13.75V5H7.75V6.5Z" fill="white"/>
</svg>
