<svg width="24" height="24" viewBox="0 0 24 24" fill="none" xmlns="http://www.w3.org/2000/svg">
<path d="M7.5 13.8529C7.5 13.8529 8.45872 12.5594 9.08824 12.2647C10.9887 11.3752 11.3752 10.9887 12.2647 9.08824C12.5594 8.45872 13.8529 7.5 13.8529 7.5M10.1471 16.5C10.1471 16.5 11.4406 15.5413 11.7353 14.9118C12.6248 13.0113 13.0113 12.6248 14.9118 11.7353C15.5413 11.4406 16.5 10.1471 16.5 10.1471" stroke="#0B0D0F" stroke-linejoin="round"/>
<path d="M3.90334 17.5L3.03779 18.3656C2.32074 19.0826 2.32074 20.2452 3.03779 20.9622C3.75483 21.6793 4.9174 21.6793 5.63445 20.9622L6.5 20.0967" stroke="#0B0D0F" stroke-linejoin="round"/>
<path d="M17.5 3.90334L18.3656 3.03779C19.0826 2.32074 20.2452 2.32074 20.9622 3.03779C21.6793 3.75483 21.6793 4.9174 20.9622 5.63445L20.0967 6.5" stroke="#0B0D0F" stroke-linejoin="round"/>
<path d="M12.7069 6.2072L17.7927 11.293C18.1832 11.6835 18.8164 11.6835 19.2069 11.293L21.2927 9.2072C21.6832 8.81667 21.6832 8.18351 21.2927 7.79298L16.2069 2.7072C15.8164 2.31667 15.1832 2.31667 14.7927 2.7072L12.7069 4.79298C12.3164 5.18351 12.3164 5.81667 12.7069 6.2072Z" stroke="#0B0D0F" stroke-linejoin="round"/>
<path d="M2.70696 16.2072L7.79274 21.293C8.18327 21.6835 8.81643 21.6835 9.20696 21.293L11.2928 19.2072C11.6833 18.8167 11.6833 18.1835 11.2928 17.793L6.20696 12.7072C5.81643 12.3167 5.18327 12.3167 4.79274 12.7072L2.70696 14.793C2.31643 15.1835 2.31643 15.8167 2.70696 16.2072Z" stroke="#0B0D0F" stroke-linejoin="round"/>
</svg>
