<svg width="24" height="24" viewBox="0 0 24 24" fill="none" xmlns="http://www.w3.org/2000/svg">
<path d="M2 7.98607C2.10954 5.77584 2.43723 4.39781 3.41752 3.41752C4.39781 2.43723 5.77584 2.10954 7.98607 2M22 7.98607C21.8904 5.77584 21.5627 4.39781 20.5825 3.41752C19.6022 2.43723 18.2241 2.10954 16.0139 2M16.0139 22C18.2241 21.8904 19.6022 21.5627 20.5825 20.5825C21.5627 19.6022 21.8904 18.2241 22 16.0139M7.98606 22C5.77584 21.8904 4.39781 21.5627 3.41752 20.5825C2.43723 19.6022 2.10954 18.2241 2 16.0139M14.1053 12C14.1053 10.8373 13.1627 9.89474 12 9.89474C10.8373 9.89474 9.89474 10.8373 9.89474 12C9.89474 13.1627 10.8373 14.1053 12 14.1053C13.1627 14.1053 14.1053 13.1627 14.1053 12ZM20.0371 11.2819C20.2931 11.6025 20.4211 11.7627 20.4211 12C20.4211 12.2373 20.2931 12.3975 20.0371 12.7181C18.8866 14.1583 15.9488 17.2632 12 17.2632C8.05118 17.2632 5.11335 14.1583 3.96298 12.7181C3.70696 12.3975 3.57895 12.2373 3.57895 12C3.57895 11.7627 3.70696 11.6025 3.96298 11.2819C5.11335 9.84168 8.05118 6.73684 12 6.73684C15.9488 6.73684 18.8866 9.84168 20.0371 11.2819Z" stroke="white" stroke-width="1.5" stroke-linecap="round"/>
</svg>
