<svg width="328" height="158" viewBox="0 0 328 158" fill="none" xmlns="http://www.w3.org/2000/svg">
<path d="M75.4334 157.506C71.7317 157.506 68.7396 154.521 68.7396 150.828V95.2581H14.6397C8.86287 95.2581 3.77552 91.9992 1.36573 86.7501C-1.05746 81.481 -0.214028 75.4772 3.56132 71.0897L56.4295 9.72349C60.4659 5.0621 66.7983 3.41258 72.5819 5.56296C78.3788 7.70667 82.1273 13.0893 82.1273 19.28V81.9084H85.8023C89.504 81.9084 92.4961 84.8935 92.4961 88.5866C92.4961 92.2796 89.504 95.2648 85.8023 95.2648H82.1273V150.834C82.1273 154.521 79.1285 157.506 75.4334 157.506ZM67.441 17.9778C66.9657 17.9778 66.6979 18.2916 66.5774 18.4252L13.7159 79.7847C13.3545 80.1988 13.2942 80.6595 13.5285 81.1671C13.8632 81.8883 14.4523 81.8883 14.6397 81.8883H68.7396V19.26C68.7396 19.0196 68.7396 18.3651 67.9229 18.0646C67.7422 18.0112 67.5882 17.9778 67.441 17.9778Z" fill="#0B0D0F"/>
<path d="M310.944 157.506C307.242 157.506 304.25 154.521 304.25 150.828V95.2581H250.144C244.367 95.2581 239.279 91.9992 236.87 86.7501C234.446 81.481 235.29 75.4772 239.065 71.0897L291.933 9.72349C295.97 5.04873 302.309 3.41925 308.086 5.56296C313.889 7.70667 317.638 13.096 317.638 19.28V81.9084H321.306C325.008 81.9084 328 84.8935 328 88.5866C328 92.2796 325.008 95.2648 321.306 95.2648H317.638V150.834C317.638 154.521 314.646 157.506 310.944 157.506ZM302.952 17.9778C302.476 17.9778 302.208 18.2916 302.088 18.4252L249.227 79.7847C248.865 80.1987 248.805 80.6595 249.039 81.1671C249.374 81.8883 249.963 81.8883 250.15 81.8883H304.257V19.26C304.257 19.0196 304.257 18.3651 303.44 18.0646C303.253 18.0112 303.092 17.9778 302.952 17.9778Z" fill="#0B0D0F"/>
<path d="M164 158C138.677 158 118.073 137.358 118.073 111.987V46.0129C118.073 20.6424 138.677 0 164 0C189.323 0 209.927 20.6424 209.927 46.0129V111.987C209.927 137.358 189.323 158 164 158ZM164 13.3631C146.054 13.3631 131.461 28.0085 131.461 46.0196V111.994C131.461 129.998 146.061 144.65 164 144.65C181.94 144.65 196.539 130.005 196.539 111.994V46.0196C196.539 28.0085 181.946 13.3631 164 13.3631Z" fill="#B4DC26"/>
</svg>
