<svg width="108" height="18" viewBox="0 0 108 18" fill="none" xmlns="http://www.w3.org/2000/svg">
<path d="M2.46534 17.7306H0V0.754533H12.1898V2.85633H2.46534V7.73358H11.7241V9.80843H2.46534V17.7306Z" fill="#0B0D0F"/>
<path d="M100.631 17.7306H91.7013V0.350313H100.166C103.316 0.350313 107.096 1.4551 107.096 5.17367C107.096 6.52097 106.192 8.16468 104.329 8.59582C107.233 8.86528 108 10.9401 108 12.7186C108 16.7066 103.946 17.7306 100.631 17.7306ZM96.002 3.61079V7.32935L99.9465 7.30241C101.289 7.30241 102.823 7.05989 102.823 5.44313C102.823 3.85331 101.261 3.58384 99.9465 3.58384L96.002 3.61079ZM96.002 10.5359V14.497H100.549C101.974 14.497 103.699 14.3623 103.699 12.5569C103.699 10.7515 102.001 10.5359 100.549 10.5359H96.002Z" fill="#0B0D0F"/>
<path d="M80.7321 14.551C83.6631 14.551 84.5945 12.6109 84.5945 9.9971V0.32345H88.7308V9.9971C88.7308 13.6618 86.9776 17.9462 80.7047 17.9462C74.4592 17.9462 72.6786 13.6348 72.6786 9.9971L72.706 0.32345H76.9245V9.9971C76.9245 12.6109 77.8011 14.551 80.7321 14.551Z" fill="#0B0D0F"/>
<path d="M71.2323 17.7306H57.8647V0.350313H62.1653V14.0659H71.2323V17.7306Z" fill="#0B0D0F"/>
<path d="M49.7886 11.4521H53.9523C53.514 14.7665 51.35 18 46.0358 18C39.7629 18 38.0097 13.6886 38.0097 10.0509V7.9491C38.0097 4.31138 39.7629 0 46.0358 0C51.35 0 53.5414 3.26048 53.9523 6.57485H49.816C49.4873 4.55389 48.419 3.39521 46.0632 3.39521C43.1322 3.39521 42.2282 5.33533 42.2282 7.9491V10.0509C42.2282 12.6647 43.1322 14.6048 46.0632 14.6048C48.3916 14.6048 49.4873 13.4731 49.7886 11.4521Z" fill="#0B0D0F"/>
<path d="M29.9337 17.7306H27.4957V2.88328H21.5789V0.754533H35.8505V2.88328H29.9337V17.7306Z" fill="#0B0D0F"/>
<path d="M18.1115 17.7306H15.6462V0.754533H18.1115V17.7306Z" fill="#0B0D0F"/>
</svg>
